<svg width="1441" height="218" viewBox="0 0 1441 218" fill="none" xmlns="http://www.w3.org/2000/svg">
<g filter="url(#filter0_i_722_433)">
<path d="M1509.25 -271.368C1463.08 -247.495 1387.87 -211.823 1355.35 -198.24C1192.31 -130.051 1060.49 -104.669 948.84 -120.036C933.45 -122.094 906.591 -127.719 886.411 -132.933C837.339 -145.692 759.812 -162.705 707.11 -172.035C596.626 -191.654 505.596 -200.161 403.533 -200.161C257.333 -200.161 120.426 -181.639 -72.5222 -135.677C-118.11 -124.701 -175.021 -110.706 -180.683 -108.785C-183.152 -107.962 -182.861 -107.825 -155.276 -93.1446C-121.739 -75.4458 -79.2006 -47.8685 -51.4706 -26.0537C-39.1301 -16.3125 -6.46391 13.8716 -6.46391 15.6552C-6.46391 16.204 -13.1423 24.0244 -21.1274 32.8052C-60.1816 75.4745 -82.2494 108.128 -100.107 149.563C-107.802 167.399 -125.804 217.065 -124.933 217.888C-124.498 218.3 -111.286 213.909 -95.4611 208.284C48.5604 156.697 169.353 130.08 308.583 119.241C343.862 116.497 476.269 116.909 518.372 119.927C599.094 125.69 677.783 135.019 770.265 149.7C809.464 156.011 827.322 159.029 908.188 173.573C966.262 183.863 1011.99 187.43 1072.25 186.332C1151.81 184.823 1220.04 174.533 1298.73 152.444C1414.59 119.79 1531.46 62.8521 1623.07 -5.74806C1641.8 -19.6053 1674.75 -48.4174 1673.3 -49.515C1672.87 -49.9265 1659.22 -54.3169 1642.81 -59.5305C1626.41 -64.607 1594.47 -75.3086 1571.67 -83.2662C1548.88 -91.0866 1522.17 -100.279 1512.15 -103.435C1502.13 -106.59 1494 -109.883 1494 -110.432C1494 -111.118 1497.92 -118.801 1502.57 -127.445C1521.3 -162.156 1531.17 -192.752 1544.09 -256.413C1547.28 -272.603 1550.33 -287.283 1550.77 -289.067C1551.06 -290.713 1550.91 -292.085 1550.33 -292.085C1549.61 -291.948 1531.17 -282.618 1509.25 -271.368Z" fill="#255B25"/>
</g>
<defs>
<filter id="filter0_i_722_433" x="-181.651" y="-307.085" width="1855" height="525" filterUnits="userSpaceOnUse" color-interpolation-filters="sRGB">
<feFlood flood-opacity="0" result="BackgroundImageFix"/>
<feBlend mode="normal" in="SourceGraphic" in2="BackgroundImageFix" result="shape"/>
<feColorMatrix in="SourceAlpha" type="matrix" values="0 0 0 0 0 0 0 0 0 0 0 0 0 0 0 0 0 0 127 0" result="hardAlpha"/>
<feOffset dy="-15"/>
<feGaussianBlur stdDeviation="25"/>
<feComposite in2="hardAlpha" operator="arithmetic" k2="-1" k3="1"/>
<feColorMatrix type="matrix" values="0 0 0 0 0.239583 0 0 0 0 0.766667 0 0 0 0 0.342933 0 0 0 1 0"/>
<feBlend mode="normal" in2="shape" result="effect1_innerShadow_722_433"/>
</filter>
</defs>
</svg>
